<svg width="40" height="40" viewBox="0 0 40 40" fill="none" xmlns="http://www.w3.org/2000/svg">
<g id="24">
<g id="Group">
<path id="Vector" d="M12.5 14.5734C13.0783 13.9367 14.025 13.3334 15.4167 13.3334C17.3367 13.3334 18.5733 14.6534 19.0083 16.1017C19.43 17.5134 19.175 19.26 17.975 20.465C17.5588 20.8652 17.1173 21.2382 16.6533 21.5817L16.5867 21.6334C16.12 21.9934 15.7033 22.32 15.3367 22.6834C14.9117 23.11 14.5633 23.575 14.3617 24.1667H17.9167C18.2482 24.1667 18.5661 24.2984 18.8005 24.5328C19.035 24.7672 19.1667 25.0852 19.1667 25.4167C19.1667 25.7482 19.035 26.0662 18.8005 26.3006C18.5661 26.535 18.2482 26.6667 17.9167 26.6667H12.9167C12.5851 26.6667 12.2672 26.535 12.0328 26.3006C11.7984 26.0662 11.6667 25.7482 11.6667 25.4167C11.6667 23.3384 12.54 21.945 13.5733 20.915C14.0667 20.4217 14.6033 20.0067 15.0567 19.655L15.0617 19.6517C15.5383 19.2834 15.9083 18.9967 16.2033 18.7017C16.6567 18.245 16.815 17.4934 16.6133 16.8184C16.4217 16.1834 15.9967 15.8334 15.4167 15.8334C14.8283 15.8334 14.525 16.0617 14.35 16.255C14.2476 16.368 14.1643 16.4969 14.1033 16.6367V16.6417C14.0012 16.9573 13.7779 17.2194 13.4826 17.3704C13.1872 17.5214 12.8439 17.5488 12.5283 17.4467C12.2127 17.3446 11.9506 17.1213 11.7996 16.8259C11.6487 16.5306 11.6212 16.1873 11.7233 15.8717L11.7817 15.7117C11.9529 15.2937 12.1954 14.9085 12.4983 14.5734H12.5Z" fill="#FFB21E"/>
<path id="Vector_2" d="M22.0834 13.3334C22.4149 13.3334 22.7328 13.4651 22.9673 13.6995C23.2017 13.9339 23.3334 14.2519 23.3334 14.5834V19.1667H25.8334V14.5834C25.8334 14.2519 25.9651 13.9339 26.1995 13.6995C26.4339 13.4651 26.7519 13.3334 27.0834 13.3334C27.4149 13.3334 27.7328 13.4651 27.9673 13.6995C28.2017 13.9339 28.3334 14.2519 28.3334 14.5834V25.3667C28.3334 25.6982 28.2017 26.0162 27.9673 26.2506C27.7328 26.485 27.4149 26.6167 27.0834 26.6167C26.7519 26.6167 26.4339 26.485 26.1995 26.2506C25.9651 26.0162 25.8334 25.6982 25.8334 25.3667V21.6667H22.0834C21.7519 21.6667 21.4339 21.535 21.1995 21.3006C20.9651 21.0662 20.8334 20.7482 20.8334 20.4167V14.5834C20.8334 14.2519 20.9651 13.9339 21.1995 13.6995C21.4339 13.4651 21.7519 13.3334 22.0834 13.3334Z" fill="#FFB21E"/>
<path id="Vector_3" d="M36.6667 20C36.6667 10.795 29.205 3.33337 20 3.33337C10.795 3.33337 3.33337 10.795 3.33337 20C3.33337 29.205 10.795 36.6667 20 36.6667C29.205 36.6667 36.6667 29.205 36.6667 20ZM5.83337 20C5.83337 16.2428 7.32593 12.6395 9.9827 9.9827C12.6395 7.32593 16.2428 5.83337 20 5.83337C23.7573 5.83337 27.3606 7.32593 30.0174 9.9827C32.6742 12.6395 34.1667 16.2428 34.1667 20C34.1667 23.7573 32.6742 27.3606 30.0174 30.0174C27.3606 32.6742 23.7573 34.1667 20 34.1667C16.2428 34.1667 12.6395 32.6742 9.9827 30.0174C7.32593 27.3606 5.83337 23.7573 5.83337 20Z" fill="#FFB21E"/>
</g>
</g>
</svg>
