<svg width="25" height="25" viewBox="0 0 25 25" fill="none" xmlns="http://www.w3.org/2000/svg">
<g id="Arrow">
<g id="Group">
<path id="Vector" fill-rule="evenodd" clip-rule="evenodd" d="M2 12.5C2 12.3011 2.07902 12.1103 2.21967 11.9697C2.36032 11.829 2.55109 11.75 2.75 11.75L20.4395 11.75L15.719 7.03101C15.5782 6.89018 15.4991 6.69918 15.4991 6.50001C15.4991 6.30085 15.5782 6.10984 15.719 5.96901C15.8598 5.82818 16.0508 5.74907 16.25 5.74907C16.4492 5.74907 16.6402 5.82818 16.781 5.96901L22.781 11.969C22.8508 12.0387 22.9063 12.1214 22.9441 12.2126C22.9819 12.3037 23.0013 12.4014 23.0013 12.5C23.0013 12.5987 22.9819 12.6963 22.9441 12.7875C22.9063 12.8786 22.8508 12.9613 22.781 13.031L16.781 19.031C16.6402 19.1718 16.4492 19.251 16.25 19.251C16.0508 19.251 15.8598 19.1718 15.719 19.031C15.5782 18.8902 15.4991 18.6992 15.4991 18.5C15.4991 18.3008 15.5782 18.1098 15.719 17.969L20.4395 13.25L2.75 13.25C2.55109 13.25 2.36032 13.171 2.21967 13.0303C2.07902 12.8897 2 12.6989 2 12.5Z" fill="white"/>
</g>
</g>
</svg>
