<svg width="168" height="136" viewBox="0 0 168 136" fill="none" xmlns="http://www.w3.org/2000/svg">
<g id="Pattern" opacity="0.3">
<circle id="Ellipse 5" cx="4" cy="4" r="4" fill="#FFB21E"/>
<circle id="Ellipse 10" cx="4" cy="36" r="4" fill="#FFB21E"/>
<circle id="Ellipse 15" cx="4" cy="68" r="4" fill="#FFB21E"/>
<circle id="Ellipse 20" cx="4" cy="100" r="4" fill="#FFB21E"/>
<circle id="Ellipse 25" cx="4" cy="132" r="4" fill="#FFB21E"/>
<circle id="Ellipse 6" cx="36" cy="4" r="4" fill="#FFB21E"/>
<circle id="Ellipse 11" cx="36" cy="36" r="4" fill="#FFB21E"/>
<circle id="Ellipse 16" cx="36" cy="68" r="4" fill="#FFB21E"/>
<circle id="Ellipse 21" cx="36" cy="100" r="4" fill="#FFB21E"/>
<circle id="Ellipse 26" cx="36" cy="132" r="4" fill="#FFB21E"/>
<circle id="Ellipse 7" cx="68" cy="4" r="4" fill="#FFB21E"/>
<circle id="Ellipse 12" cx="68" cy="36" r="4" fill="#FFB21E"/>
<circle id="Ellipse 17" cx="68" cy="68" r="4" fill="#FFB21E"/>
<circle id="Ellipse 22" cx="68" cy="100" r="4" fill="#FFB21E"/>
<circle id="Ellipse 27" cx="68" cy="132" r="4" fill="#FFB21E"/>
<circle id="Ellipse 8" cx="100" cy="4" r="4" fill="#FFB21E"/>
<circle id="Ellipse 30" cx="164" cy="4" r="4" fill="#FFB21E"/>
<circle id="Ellipse 13" cx="100" cy="36" r="4" fill="#FFB21E"/>
<circle id="Ellipse 31" cx="164" cy="36" r="4" fill="#FFB21E"/>
<circle id="Ellipse 18" cx="100" cy="68" r="4" fill="#FFB21E"/>
<circle id="Ellipse 32" cx="164" cy="68" r="4" fill="#FFB21E"/>
<circle id="Ellipse 23" cx="100" cy="100" r="4" fill="#FFB21E"/>
<circle id="Ellipse 33" cx="164" cy="100" r="4" fill="#FFB21E"/>
<circle id="Ellipse 28" cx="100" cy="132" r="4" fill="#FFB21E"/>
<circle id="Ellipse 34" cx="164" cy="132" r="4" fill="#FFB21E"/>
<circle id="Ellipse 9" cx="132" cy="4" r="4" fill="#FFB21E"/>
<circle id="Ellipse 14" cx="132" cy="36" r="4" fill="#FFB21E"/>
<circle id="Ellipse 19" cx="132" cy="68" r="4" fill="#FFB21E"/>
<circle id="Ellipse 24" cx="132" cy="100" r="4" fill="#FFB21E"/>
<circle id="Ellipse 29" cx="132" cy="132" r="4" fill="#FFB21E"/>
</g>
</svg>
